<svg xmlns="http://www.w3.org/2000/svg" viewBox="0 0 485.932 319.118"><defs><style>.a{fill:red;}</style></defs><title>アセット 10</title><path class="a" d="M7.058,93.092,0,47.361l9.527-1.47q10.652-1.644,15.226-1.326a21.981,21.981,0,0,1,8.279,2.144,19.806,19.806,0,0,1,7.788,6.745A25.134,25.134,0,0,1,44.735,63.9a25.127,25.127,0,0,1-.584,11.139,19.8,19.8,0,0,1-5.392,8.78,21.837,21.837,0,0,1-7.051,4.462A64.645,64.645,0,0,1,18.678,91.3l-2.093.323ZM17.815,80.943l2.093-.323q7.339-1.134,10.248-4.668t1.9-10.095q-1.012-6.559-4.859-9.1T16.007,55.349l-2.092.323Z"/><path class="a" d="M54.149,85.825,47.092,40.094l13.025-2.011a55.015,55.015,0,0,1,10.776-.943A13.785,13.785,0,0,1,76.458,38.7a12.478,12.478,0,0,1,4.533,4.2,15.4,15.4,0,0,1,2.316,6.2,13.752,13.752,0,0,1-1.276,9.04,12.864,12.864,0,0,1-6.923,5.593L90.415,80.228,76.327,82.4,63.069,66.124l2.763,17.9ZM62.11,59.907l2.312-.357q4.029-.623,5.675-2.283a5.064,5.064,0,0,0,1.194-4.6q-.531-3.437-2.488-4.621t-6.05-.554l-2.5.386Z"/><path class="a" d="M95.8,79.4,88.745,33.665l28.02-4.324,1.547,10.027-15.868,2.449,1.224,7.934,14.962-2.309,1.514,9.809L105.182,59.56l1.19,7.715,15.869-2.449,1.581,10.246Z"/><path class="a" d="M133.738,58.415a22.9,22.9,0,0,0,6.21,3.871,10.826,10.826,0,0,0,5.63.73,6.259,6.259,0,0,0,3.9-1.978,4.29,4.29,0,0,0,1.083-3.652,4.511,4.511,0,0,0-1.932-3.3q-1.581-1.019-6.687-1.574-7-.774-10.224-3.251a11.168,11.168,0,0,1-4.009-7.536,14.209,14.209,0,0,1,2.737-11.376,16.108,16.108,0,0,1,10.747-5.9,25.187,25.187,0,0,1,7.326-.092,23.5,23.5,0,0,1,6.894,2.087l-2.521,9.567a16.623,16.623,0,0,0-4.779-2.061,11.675,11.675,0,0,0-4.563-.239,5.914,5.914,0,0,0-3.488,1.642,3.371,3.371,0,0,0-.979,2.981,3.442,3.442,0,0,0,1.658,2.559,13.5,13.5,0,0,0,5.067,1.232c.152.02.347.043.587.069q7.938.886,10.725,2.983a11.282,11.282,0,0,1,3.092,3.664,15.649,15.649,0,0,1,1.652,5.1,15.359,15.359,0,0,1-2.974,12.436q-4.1,5.158-12.063,6.387a22.809,22.809,0,0,1-8.95-.282,24.9,24.9,0,0,1-8.329-3.927Z"/><path class="a" d="M171.87,52.53a22.865,22.865,0,0,0,6.21,3.871,10.811,10.811,0,0,0,5.629.73,6.263,6.263,0,0,0,3.9-1.977,4.294,4.294,0,0,0,1.084-3.653,4.511,4.511,0,0,0-1.933-3.3q-1.581-1.019-6.687-1.574-7-.774-10.224-3.251a11.172,11.172,0,0,1-4.009-7.536,14.209,14.209,0,0,1,2.737-11.376,16.11,16.11,0,0,1,10.747-5.9,25.187,25.187,0,0,1,7.326-.092,23.484,23.484,0,0,1,6.894,2.087l-2.521,9.568a16.6,16.6,0,0,0-4.779-2.062,11.689,11.689,0,0,0-4.562-.239,5.914,5.914,0,0,0-3.489,1.642,3.377,3.377,0,0,0-.979,2.981,3.445,3.445,0,0,0,1.658,2.56,13.554,13.554,0,0,0,5.068,1.232q.228.028.586.069,7.939.885,10.726,2.982a11.307,11.307,0,0,1,3.092,3.664,15.648,15.648,0,0,1,1.651,5.1A15.359,15.359,0,0,1,197.021,60.5q-4.1,5.159-12.062,6.387a22.808,22.808,0,0,1-8.95-.282,24.891,24.891,0,0,1-8.33-3.927Z"/><path class="a" d="M279.2,51.092l-11.651,1.8-5.738-19.359q-.6-2.049-1.234-4.574T259.3,23.431a56.86,56.86,0,0,1-.6,7.512q-.141.949-.2,1.406l-2.909,22.388-8.309,1.282L237.754,35.55q-.192-.418-.582-1.285a50.881,50.881,0,0,1-2.831-6.951q.213,2.622.356,5.2t.189,5.168l.365,20.188-11.588,1.789V12.843L236,10.939l10.543,22.518q.1.242.375.774a30.783,30.783,0,0,1,2.052,5.216,22.239,22.239,0,0,1,.052-2.775q.114-1.536.385-3.721l3.336-24.6,12.37-1.909Z"/><path class="a" d="M285.918,50.055,278.86,4.324,306.88,0l1.548,10.027-15.869,2.45,1.225,7.933L308.746,18.1l1.514,9.809L295.3,30.219l1.19,7.715,15.869-2.449,1.581,10.246Z"/><path class="a" d="M233.5,84.8l12.406.617-4.847,23.018q-.574,2.629-.807,4.122a25.62,25.62,0,0,0-.288,2.627,6.219,6.219,0,0,0,1.443,4.708,6.351,6.351,0,0,0,4.589,1.89q7.134.355,11.079-18.5l.085-.439,3.488-16.693,12.406.617-5.439,26.027,0,.031q-1.782,8.456-4.009,11.89a17.066,17.066,0,0,1-7.65,6.518,24.561,24.561,0,0,1-11.246,1.814q-8.271-.411-13.061-4.621a12.784,12.784,0,0,1-4.464-10.776,48.314,48.314,0,0,1,.639-5.221q.542-3.264,1.542-8.088Z"/><path class="a" d="M272.129,133.048,281.782,87.2l12.69.631a54.285,54.285,0,0,1,7.9.82,15.312,15.312,0,0,1,4.537,1.665,12.223,12.223,0,0,1,5.043,5.188,15.083,15.083,0,0,1,1.38,7.568A17.451,17.451,0,0,1,311.057,111a13.914,13.914,0,0,1-5.38,5.428,13.115,13.115,0,0,1-4.566,1.434,48.168,48.168,0,0,1-8.137.086l-1.894-.094-3.283-.163-3.389,15.971Zm17.7-25.1,1.168.058q6,.3,8.175-.859a4.6,4.6,0,0,0,2.33-4.188,4.149,4.149,0,0,0-1.629-3.831q-1.758-1.275-5.639-1.467l-2.211-.11Z"/><path class="a" d="M176.025,144.155l-6.008,48.62L159.728,191.5l.636-5.144a15.365,15.365,0,0,1-5.39,4.19,11.476,11.476,0,0,1-6.124.852,13.39,13.39,0,0,1-10.064-5.925q-3.384-5.1-2.418-12.91.935-7.56,5.447-11.732a12.908,12.908,0,0,1,10.848-3.389,13.192,13.192,0,0,1,6.362,2.252,12.868,12.868,0,0,1,3.905,5.387q-.05-1.154.033-2.592t.287-3.1L165.3,142.83Zm-13.967,31.587a8.356,8.356,0,0,0-1.239-6.077,7.811,7.811,0,0,0-10.681-1.32,9.851,9.851,0,0,0-1.459,11.682,7.853,7.853,0,0,0,10.7,1.307A8.355,8.355,0,0,0,162.058,175.742Z"/><path class="a" d="M177.72,193.727l3.915-31.681,10.538,1.3-.922,7.466a13.547,13.547,0,0,1,5.21-5.566,11.448,11.448,0,0,1,7.09-1.194q.66.081,1.328.211t1.346.31L203.9,174.607a12,12,0,0,0-1.914-.746,11.874,11.874,0,0,0-1.862-.39,8.027,8.027,0,0,0-6.6,1.717q-2.52,2.22-3.085,6.8l-1.62,13.112Z"/><path class="a" d="M241.2,187.751l-24.09-2.977a8.17,8.17,0,0,0,1.182,5.894,6.84,6.84,0,0,0,4.991,2.639,8.851,8.851,0,0,0,4.4-.427,6.286,6.286,0,0,0,3-2.511l7.988,4.426a11.034,11.034,0,0,1-6.027,4.956,20.406,20.406,0,0,1-9.622.817q-8.281-1.023-12.717-6.237a15.8,15.8,0,0,1-3.5-12.742,16.611,16.611,0,0,1,6.522-11.678,17.5,17.5,0,0,1,13.262-3.329q7.874.974,11.81,6.491t2.87,14.144Zm-10.231-7.665a6.836,6.836,0,0,0-1.52-4.583,6.074,6.074,0,0,0-4.08-2.161,6.2,6.2,0,0,0-4.529.954,7.783,7.783,0,0,0-2.7,4.2Z"/><path class="a" d="M243.939,199.236l3.376-8.246a18.367,18.367,0,0,0,4.974,3.943,16.257,16.257,0,0,0,5.772,1.875,6.212,6.212,0,0,0,3.282-.279,2.183,2.183,0,0,0,1.341-1.825q.26-2.1-4.035-3.683-1.4-.523-2.248-.882-4.85-2-6.845-4.525a7.87,7.87,0,0,1-1.555-6.1,9.012,9.012,0,0,1,4.377-6.943q3.805-2.331,9.735-1.6a28.489,28.489,0,0,1,6.108,1.471,34.2,34.2,0,0,1,6.177,2.977l-3.271,7.4a19.3,19.3,0,0,0-4.234-2.848,14.133,14.133,0,0,0-4.483-1.35,5.65,5.65,0,0,0-2.96.239,1.922,1.922,0,0,0-1.184,1.6q-.21,1.695,4.038,3.4.969.407,1.455.593,5.6,2.38,7.595,4.9a8.2,8.2,0,0,1,1.524,6.351,9.664,9.664,0,0,1-4.7,7.4q-4.1,2.534-10.252,1.774a30.131,30.131,0,0,1-7.63-1.914A25.058,25.058,0,0,1,243.939,199.236Z"/><path class="a" d="M275.668,203.156l3.376-8.245a18.329,18.329,0,0,0,4.974,3.942,16.259,16.259,0,0,0,5.772,1.876,6.218,6.218,0,0,0,3.283-.279,2.186,2.186,0,0,0,1.34-1.825q.26-2.1-4.036-3.683-1.4-.524-2.247-.883-4.85-2-6.846-4.524a7.874,7.874,0,0,1-1.555-6.1,9.013,9.013,0,0,1,4.377-6.943q3.807-2.331,9.736-1.6a28.545,28.545,0,0,1,6.108,1.47,34.271,34.271,0,0,1,6.177,2.977l-3.271,7.4a19.3,19.3,0,0,0-4.234-2.848,14.14,14.14,0,0,0-4.483-1.35,5.65,5.65,0,0,0-2.96.239,1.921,1.921,0,0,0-1.185,1.6q-.209,1.694,4.039,3.4.969.406,1.455.594,5.6,2.38,7.6,4.9a8.2,8.2,0,0,1,1.524,6.35,9.663,9.663,0,0,1-4.7,7.4q-4.1,2.534-10.251,1.774a30.121,30.121,0,0,1-7.63-1.913A25.059,25.059,0,0,1,275.668,203.156Z"/><path class="a" d="M366.926,217.108l2.136-17.284q.507-4.108-.318-5.8a3.917,3.917,0,0,0-3.336-2q-3.137-.387-4.628,1.642t-2.328,8.773l-1.658,13.425L346,214.523l2.136-17.284q.516-4.172-.3-5.833a3.906,3.906,0,0,0-3.323-1.971q-3.138-.389-4.657,1.606t-2.362,8.8l-1.659,13.425-10.853-1.341,3.915-31.682,10.979,1.357-.683,5.52a13.953,13.953,0,0,1,5.175-4.376,11.535,11.535,0,0,1,6.3-.83,12.149,12.149,0,0,1,6.136,2.271,8.348,8.348,0,0,1,2.977,4.906,12.442,12.442,0,0,1,5.071-3.927,12.864,12.864,0,0,1,6.456-.7,12.3,12.3,0,0,1,4.885,1.575,9.137,9.137,0,0,1,3.237,3.314,9.345,9.345,0,0,1,1.213,3.717,31.213,31.213,0,0,1-.321,6.584l-.085.691L378,218.476Z"/><path class="a" d="M420.107,209.858l-24.091-2.977a8.183,8.183,0,0,0,1.183,5.9,6.849,6.849,0,0,0,4.992,2.639,8.839,8.839,0,0,0,4.4-.428,6.282,6.282,0,0,0,3-2.51l7.989,4.426a11.038,11.038,0,0,1-6.027,4.956,20.425,20.425,0,0,1-9.623.817q-8.281-1.023-12.717-6.237a15.8,15.8,0,0,1-3.5-12.742,16.61,16.61,0,0,1,6.523-11.678,17.493,17.493,0,0,1,13.262-3.33q7.872.974,11.809,6.491t2.87,14.145Zm-10.231-7.665a6.833,6.833,0,0,0-1.52-4.583,6.073,6.073,0,0,0-4.08-2.16,6.2,6.2,0,0,0-4.528.953,7.788,7.788,0,0,0-2.7,4.2Z"/><path class="a" d="M349.28,251.282l-.352,49.593-10.5,1.577.042-4.194a16.692,16.692,0,0,1-4.538,4.789,13.74,13.74,0,0,1-5.813,2.263,11.3,11.3,0,0,1-9.541-2.77,16.012,16.012,0,0,1-5.078-10.088q-1.23-8.188,2.667-14.272a15.186,15.186,0,0,1,10.991-7.147,12.537,12.537,0,0,1,5.966.462,15.585,15.585,0,0,1,5.488,3.442l-.137-.906q-.14-.937-.2-1.968t-.063-2.115l.129-17.023Zm-24.522,38.041a6.409,6.409,0,0,0,7.728,5.711,7.084,7.084,0,0,0,5.146-3.41,9.658,9.658,0,0,0,1.25-6.787,6.457,6.457,0,0,0-2.576-4.487,6.623,6.623,0,0,0-5.072-1.109A7.21,7.21,0,0,0,326,282.6,9.449,9.449,0,0,0,324.758,289.323Z"/><path class="a" d="M353.521,285.579a17.893,17.893,0,0,1,3.27-13.979,18.586,18.586,0,0,1,12.666-7.175q7.565-1.137,12.739,2.465t6.25,10.759a17.562,17.562,0,0,1-3.351,13.863q-4.545,5.924-12.921,7.182-7.407,1.113-12.5-2.47T353.521,285.579ZM370.6,273.521a7,7,0,0,0-5.106,3.564,10.23,10.23,0,0,0-1.264,7.014,6.45,6.45,0,0,0,2.351,4.377,5.9,5.9,0,0,0,4.665,1.057,7.223,7.223,0,0,0,5.308-3.5,10.23,10.23,0,0,0,1.218-7.1,6.413,6.413,0,0,0-2.369-4.39A6.15,6.15,0,0,0,370.6,273.521Z"/><path class="a" d="M402.121,292.886l-13.9-30.193L399.1,261.06l5.278,13.878q.45,1.115.861,2.4t.845,2.909a39.032,39.032,0,0,1,1.3-5.5c.057-.178.1-.312.128-.4l4.634-15.238,7.443-1.118,5.493,13.845q.621,1.634,1.046,2.9t.721,2.4a37.885,37.885,0,0,1,1.3-5.5l.1-.4,4.787-15.261,11.211-1.684-12.015,34.085-8.393,1.261-5.653-14.078q-.414-1.089-.828-2.384t-.809-2.675q-.161,1.014-.485,2.293t-.974,3.423l-4.667,15.435Z"/><path class="a" d="M448.3,285.951l.26-32.319,10.69-1.606-.04,5.056a18.777,18.777,0,0,1,4.477-5.307,11.569,11.569,0,0,1,5.383-2.246q4.907-.736,8.007,1.5a9.97,9.97,0,0,1,3.814,6.986,42.66,42.66,0,0,1,.25,5.492c.013.233.02.423.022.572l-.139,16.96-11.158,1.676.114-17.117q.018-.736-.007-1.437a10.919,10.919,0,0,0-.1-1.2A4.219,4.219,0,0,0,468.313,260a4.5,4.5,0,0,0-3.38-.58A5.518,5.518,0,0,0,460.7,262.2q-1.326,2.34-1.355,7.043l-.04,15.059Z"/><path class="a" d="M378.691,128.776l1.755,21.475-6.953.569-.285-3.487a10,10,0,0,1-3.082,3.548,8.819,8.819,0,0,1-4.284,1.4,8.457,8.457,0,0,1-7.124-2.575,12.893,12.893,0,0,1-3.261-8.2,12.319,12.319,0,0,1,2.008-8.566,9.137,9.137,0,0,1,6.987-3.686,8.139,8.139,0,0,1,4.263.69,8.621,8.621,0,0,1,3.268,2.934l-.288-3.53Zm-5.78,11.261a5.7,5.7,0,0,0-1.664-3.868,5.31,5.31,0,0,0-7.305.587,5.711,5.711,0,0,0-1,4.1A5.609,5.609,0,0,0,364.6,144.7a5.338,5.338,0,0,0,7.293-.6A5.611,5.611,0,0,0,372.911,140.037Z"/><path class="a" d="M385.077,149.873,383.321,128.4l6.932-.566.356,4.359a10.547,10.547,0,0,1,3.175-4.113,8.931,8.931,0,0,1,4.643-1.6,9.715,9.715,0,0,1,3.765.367,6.582,6.582,0,0,1,2.8,1.708,6.678,6.678,0,0,1,1.428,2.537,22.09,22.09,0,0,1,.74,4.607l1,12.29-7.591.62-.941-11.5a6.531,6.531,0,0,0-1.145-3.674,3.093,3.093,0,0,0-2.786-.949,3.768,3.768,0,0,0-3.3,2.025q-.942,1.832-.623,5.744l.737,9.016Z"/><path class="a" d="M432.858,112.79l2.694,32.958-6.974.57-.285-3.487a10.38,10.38,0,0,1-2.989,3.509,7.755,7.755,0,0,1-3.931,1.4,9.037,9.037,0,0,1-7.463-2.538,14.423,14.423,0,0,1-1.376-16.7,8.711,8.711,0,0,1,6.7-3.727,8.917,8.917,0,0,1,4.514.616,8.679,8.679,0,0,1,3.318,3.025q-.189-.755-.332-1.717t-.236-2.089l-.917-11.227Zm-4.9,22.79a5.636,5.636,0,0,0-1.652-3.846,5.273,5.273,0,0,0-7.24.592,6.65,6.65,0,0,0,.637,7.921,5.3,5.3,0,0,0,7.25-.6A5.634,5.634,0,0,0,427.956,135.58Z"/><rect class="a" x="5.24" y="77.85" width="315.527" height="5.005" transform="translate(-10.326 25.731) rotate(-8.75)"/><rect class="a" x="272.604" y="71.152" width="5.005" height="291.522" transform="translate(26.057 463.305) rotate(-82.947)"/><rect class="a" x="263.526" y="98.097" width="5.005" height="88.456" transform="translate(110.602 400.919) rotate(-87.139)"/><rect class="a" x="312.86" y="301.199" width="173.668" height="5.005" transform="translate(-40.785 62.935) rotate(-8.568)"/></svg>