<svg xmlns="http://www.w3.org/2000/svg" viewBox="0 0 1253.658 255.867"><defs><style>.a{fill:#fff;}</style></defs><title>アセット 15</title><path class="a" d="M1207.035,196.78c0,13.13-8.425,14.443-8.425,14.443s9.519,1.423,9.519,17.836v8.206c0,13.131-5.471,18.6-14.225,18.6s-14.224-5.471-14.224-18.6v-8.206c0-16.413,9.519-17.836,9.519-17.836s-8.424-1.313-8.424-14.443V193.5c0-10.4,4.923-15.319,13.129-15.319s13.131,4.924,13.131,15.319Zm-6.018,26.808c0-7.879-2.517-11.489-7.113-11.489-4.7,0-7.112,3.61-7.112,11.489v19.148c0,8.316,2.735,11.489,7.112,11.489s7.113-3.173,7.113-11.489Zm-1.094-32.279c0-8.864-2.188-11.49-6.019-11.49s-6.017,2.626-6.017,11.49v7.659c0,8.754,2.188,11.708,6.017,11.708,4.049,0,6.019-2.954,6.019-11.708Z"/><path class="a" d="M1160.519,184.642c-1.964,0-2.946-.982-2.946-2.41,0-1.339.982-2.321,2.946-2.321h1.606v1.071h-2.32c-1.339,0-1.964.535-1.964,1.25s.625,1.249,1.964,1.249h1c1.5,0,2.053-.625,3.034-1.66l.321-.339c.8-.839,1.447-1.571,2.785-1.571h.8a2.286,2.286,0,1,1,0,4.552h-1.606v-1.071h1.964c1.249,0,1.874-.536,1.874-1.16s-.625-1.161-1.874-1.161h-.8a3.058,3.058,0,0,0-2.339,1.321l-.321.339c-.964,1.018-1.893,1.911-3.268,1.911Z"/><path class="a" d="M1157.662,187.237h12.176v-2.053h.321v5.266h-.321V188.4h-12.176Z"/><path class="a" d="M1162.036,193.47l8.123-2.339v1.179l-6.32,1.732-1.268.321,7.588,1.785v.446l-8.123-1.963h-4.374V193.47Z"/><path class="a" d="M1158.02,201.823h-.358V197.9h12.5v1.161H1158.02Z"/><path class="a" d="M1157.984,207.051h-.322v-4.017h12.5v3.749h-.321V204.2h-5.659v1.964h-.321V204.2h-5.874Z"/><path class="a" d="M1160.519,212.429c-1.964,0-2.946-.981-2.946-2.41,0-1.339.982-2.321,2.946-2.321h1.606v1.072h-2.32c-1.339,0-1.964.535-1.964,1.249s.625,1.25,1.964,1.25h1c1.5,0,2.053-.625,3.034-1.66l.321-.34c.8-.839,1.447-1.571,2.785-1.571h.8a2.286,2.286,0,1,1,0,4.553h-1.606V211.18h1.964c1.249,0,1.874-.536,1.874-1.161s-.625-1.16-1.874-1.16h-.8a3.058,3.058,0,0,0-2.339,1.321l-.321.339c-.964,1.018-1.893,1.91-3.268,1.91Z"/><path class="a" d="M308.5,73.972v35.661h-7.992V23.554h14.756q16.6,0,16.6,16.6V57.371q0,16.6-16.6,16.6ZM323.871,37.7c0-8.853-3.074-11.928-7.379-11.928H308.5V71.512h7.993c4.305,0,7.379-3.074,7.379-11.682Z"/><path class="a" d="M382.479,107.174v2.459H355.426V23.554h7.992v83.62Z"/><path class="a" d="M426.7,89.958H406.9l-3.321,19.675h-3.074l15.248-86.079h7.993l14.88,86.079h-8.608ZM407.392,87.5h18.815l-7.379-44.269L417.107,30.44Z"/><path class="a" d="M465.276,79.505l-16.11-55.951h8.116L469.21,67.085l2.214,8.731,12.3-52.262H486.8L473.269,79.505v30.128h-7.993Z"/><path class="a" d="M578.405,109.633V25.767H564.264V23.554H600.54v2.213H586.4v83.866Z"/><path class="a" d="M611.005,76.431h28.283v2.46H611.005Z"/><path class="a" d="M692.6,89.958c0,13.527-6.764,20.29-16.6,20.29-9.222,0-15.986-6.763-15.986-20.29V78.891h7.379V94.877c0,9.222,3.688,13.526,8.607,13.526s8.609-4.3,8.609-13.526V87.99c0-10.329-4.3-14.141-11.437-20.9l-2.336-2.213c-5.78-5.534-10.822-9.961-10.822-19.184V40.155c0-10.453,6.764-17.216,15.986-17.216,8.609,0,15.372,6.763,15.372,17.216V51.222h-7.379V37.7c0-8.608-3.688-12.912-7.993-12.912S668,29.087,668,37.7v5.534c0,7.378,3.936,11.19,9.1,16.109l2.336,2.214c7.009,6.64,13.158,13.035,13.158,22.5Z"/><path class="a" d="M750.318,23.554v86.079h-7.994V68.438H723.878v41.195h-7.992V23.554h7.992V65.979h18.446V23.554Z"/><path class="a" d="M783.68,109.633h-7.992V23.554h7.992Z"/><path class="a" d="M829.08,71.143l15.617,38.49h-9.1L821.333,71.512h-4.428v38.121h-7.992V23.554h15.371c11.068,0,15.987,4.919,15.987,15.986V55.526C840.271,64.872,836.7,69.791,829.08,71.143Zm3.2-34.062c0-8.854-2.459-11.314-6.763-11.314h-8.609V69.053h8.609c4.3,0,6.763-2.459,6.763-11.068Z"/><path class="a" d="M873.091,109.633V25.767H858.949V23.554h36.277v2.213H881.084v83.866Z"/><path class="a" d="M945.14,89.958c0,13.527-6.764,20.29-16.6,20.29-9.222,0-15.986-6.763-15.986-20.29V78.891h7.379V94.877c0,9.222,3.688,13.526,8.607,13.526s8.609-4.3,8.609-13.526V87.99c0-10.329-4.3-14.141-11.437-20.9l-2.336-2.213c-5.78-5.534-10.822-9.961-10.822-19.184V40.155c0-10.453,6.764-17.216,15.986-17.216,8.609,0,15.372,6.763,15.372,17.216V51.222h-7.379V37.7c0-8.608-3.688-12.912-7.993-12.912s-7.993,4.3-7.993,12.912v5.534c0,7.378,3.936,11.19,9.1,16.109l2.336,2.214c7.009,6.64,13.158,13.035,13.158,22.5Z"/><path class="a" d="M529.592,169.126c0-1.793-.516-2.284-1.154-2.284s-1.523.835-1.547,2.775v9.6h-1.522V168.88c-.05-1.6-.565-2.038-1.154-2.038-.639,0-1.522.884-1.522,2.922v9.452h-1.547V166.449h1.547v1.523a1.935,1.935,0,0,1,1.915-1.645,2.061,2.061,0,0,1,2.086,1.792h.075s.515-1.792,2.037-1.792c1.424,0,2.308.884,2.308,3.191v9.7h-1.522Z"/><path class="a" d="M537.81,163.872a.86.86,0,0,1-1.719,0v-.123a.86.86,0,0,1,1.719,0Zm-1.621,15.344V166.449h1.547v12.767Z"/><path class="a" d="M545.2,166.327a1.987,1.987,0,0,1,2.037,1.645V162.03h1.547v17.186h-1.547v-1.522a1.987,1.987,0,0,1-2.037,1.645c-1.522,0-2.553-1.007-2.553-3.707v-5.6C542.648,167.333,543.679,166.327,545.2,166.327ZM544.17,176.54c0,1.645.638,2.283,1.424,2.283.761,0,1.644-.883,1.644-2.921v-6.138c0-2.038-.883-2.922-1.644-2.922-.786,0-1.424.639-1.424,2.284Z"/><path class="a" d="M553.408,172.587h5.647v.491h-5.647Z"/><path class="a" d="M568.134,169.126c0-1.793-.491-2.284-1.276-2.284-.762,0-1.646.884-1.646,2.922v9.452h-1.547V166.449h1.547v1.523a2.131,2.131,0,0,1,2.038-1.645c1.523,0,2.431.884,2.431,3.191v9.7h-1.547Z"/><path class="a" d="M576.361,163.872a.859.859,0,1,1-1.718,0v-.123a.859.859,0,0,1,1.718,0Zm-1.621,15.344V166.449h1.547v12.767Z"/><path class="a" d="M587.2,180.468c0,1.4-1.006,2.431-3.068,2.431-2.038,0-3.045-1.031-3.045-2.431V179.9a2.229,2.229,0,0,1,.737-1.719l2.16-2.406c-1.816-.049-2.774-1.08-2.774-3.069V169.4c0-2.063,1.007-3.069,2.922-3.069a2.607,2.607,0,0,1,2.6,1.375c.369-.344.344-1.1.344-2.014v-.2c0-.368.122-.761.638-.761s.639.393.639.761v.2c0,1.523-.688,2.136-1.473,2.308a4.717,4.717,0,0,1,.2,1.4v3.314c0,1.841-.835,2.848-2.406,3.044l-1.646,1.842a4.89,4.89,0,0,1,1.106-.123c2.062,0,3.068,1.031,3.068,2.431Zm-4.591.27a1.55,1.55,0,1,0,3.07,0v-1.08a1.553,1.553,0,1,0-3.07,0ZM585.558,169c0-1.792-.639-2.308-1.424-2.308-.762,0-1.4.516-1.4,2.308v4.075c0,1.793.637,2.308,1.4,2.308.785,0,1.424-.515,1.424-2.308Z"/><path class="a" d="M598.754,169.518v9.7h-1.547v-10.09c0-1.793-.491-2.284-1.276-2.284-.762,0-1.646.884-1.646,2.922v9.452h-1.547V162.03h1.547v5.942a2.131,2.131,0,0,1,2.038-1.645C597.846,166.327,598.754,167.211,598.754,169.518Z"/><path class="a" d="M607.746,166.449v.467h-1.669v12.3h-1.522v-12.3h-1.67v-.467h1.67v-3.805h1.522v3.805Z"/><path class="a" d="M618.941,164.215v.074l1.08,2.16h1.793v.467h-1.793v12.3H618.5v-12.3h-1.425v-.467H618.5v-1.865c0-1.915.884-2.8,1.768-2.8h.515a.753.753,0,0,1,.761.785.7.7,0,0,1-.761.737H619.9C619.211,163.307,618.941,163.577,618.941,164.215Z"/><path class="a" d="M627.791,170.157v9.059h-1.547V166.449h1.547v2.8s.639-2.921,2.283-2.921c.787,0,1.032.368,1.032.859a.778.778,0,0,1-.884.786c-.32,0-.466-.123-.785-.123C628.405,167.849,627.987,169.175,627.791,170.157Z"/><path class="a" d="M635.071,170.034c0-2.431,1.277-3.707,3.07-3.707s3.068,1.276,3.068,3.707v5.6c0,2.43-1.276,3.707-3.068,3.707s-3.07-1.277-3.07-3.707Zm1.523,6.629c0,1.669.638,2.308,1.547,2.308.884,0,1.521-.639,1.521-2.308V169c0-1.67-.637-2.308-1.521-2.308-.909,0-1.547.638-1.547,2.308Z"/><path class="a" d="M654.634,169.126c0-1.793-.516-2.284-1.154-2.284s-1.523.835-1.547,2.775v9.6h-1.522V168.88c-.05-1.6-.565-2.038-1.154-2.038-.639,0-1.522.884-1.522,2.922v9.452h-1.547V166.449h1.547v1.523a1.935,1.935,0,0,1,1.915-1.645,2.061,2.061,0,0,1,2.086,1.792h.075s.515-1.792,2.037-1.792c1.424,0,2.308.884,2.308,3.191v9.7h-1.522Z"/><path class="a" d="M671.45,166.449v.467h-1.669v12.3h-1.522v-12.3h-1.67v-.467h1.67v-3.805h1.522v3.805Z"/><path class="a" d="M675.321,170.034c0-2.431,1.277-3.707,3.07-3.707s3.068,1.276,3.068,3.707v5.6c0,2.43-1.276,3.707-3.068,3.707s-3.07-1.277-3.07-3.707Zm1.523,6.629c0,1.669.638,2.308,1.547,2.308.884,0,1.521-.639,1.521-2.308V169c0-1.67-.637-2.308-1.521-2.308-.909,0-1.547.638-1.547,2.308Z"/><path class="a" d="M687.985,172.194h.589l3.069-5.745h.54l-2.7,5.23,3.437,7.537h-1.743l-2.824-6.629h-.368v6.629h-1.547V162.03h1.547Z"/><path class="a" d="M699.974,180.346c-.221,1.227-.761,2.553-2.037,2.553h-.123a.749.749,0,0,1-.761-.761.734.734,0,0,1,.761-.761h.515a1.145,1.145,0,0,0,1.155-1.031l.22-1.13h-.884l-2.553-12.767h1.522l1.792,8.692.393,2.406,1.89-11.1h.639Z"/><path class="a" d="M706.635,170.034c0-2.431,1.276-3.707,3.069-3.707s3.069,1.276,3.069,3.707v5.6c0,2.43-1.277,3.707-3.069,3.707s-3.069-1.277-3.069-3.707Zm1.522,6.629c0,1.669.638,2.308,1.547,2.308.884,0,1.522-.639,1.522-2.308V169c0-1.67-.638-2.308-1.522-2.308-.909,0-1.547.638-1.547,2.308Z"/><path class="a" d="M725.907,180.468c0,1.4-.515,2.431-1.546,2.431H723.6a.768.768,0,0,1-.761-.786.712.712,0,0,1,.761-.736h.909c.49,0,.884,0,.884-.909l-1.031-1.939v-12.08h1.546Zm.074-16.6a.86.86,0,0,1-1.719,0v-.123a.86.86,0,0,1,1.719,0Z"/><path class="a" d="M735.117,177.94a2.023,2.023,0,0,1-1.817,1.4c-1.694,0-2.578-.884-2.578-2.922v-1.669c0-1.915,1.007-2.946,2.554-2.946a1.73,1.73,0,0,1,1.792,1.276v-4.321c0-1.546-.516-2.062-1.277-2.062-.786,0-1.276.516-1.276,2.013v.81a.754.754,0,0,1-.786.761.747.747,0,0,1-.761-.761v-.171c0-2.014,1.031-3.02,2.823-3.02,1.768,0,2.8,1.006,2.8,3.191v9.7h-1.424Zm-.049-4.076s-.393-1.62-1.424-1.62c-.761,0-1.277.442-1.277,2.5v1.669c0,1.989.492,2.5,1.277,2.5,1.031,0,1.424-1.6,1.424-1.6Z"/><path class="a" d="M745.254,179.339a1.989,1.989,0,0,1-2.038-1.645v4.959h-1.547v-16.2h1.547v1.523a1.989,1.989,0,0,1,2.038-1.645c1.523,0,2.554,1.006,2.554,3.707v5.6C747.808,178.332,746.777,179.339,745.254,179.339Zm1.031-10.213c0-1.645-.638-2.284-1.424-2.284-.761,0-1.645.884-1.645,2.922V175.9c0,2.038.884,2.921,1.645,2.921.786,0,1.424-.638,1.424-2.283Z"/><path class="a" d="M756.945,177.94a2.023,2.023,0,0,1-1.817,1.4c-1.694,0-2.578-.884-2.578-2.922v-1.669c0-1.915,1.007-2.946,2.554-2.946a1.73,1.73,0,0,1,1.792,1.276v-4.321c0-1.546-.516-2.062-1.277-2.062-.786,0-1.276.516-1.276,2.013v.81a.774.774,0,0,1-1.547,0v-.171c0-2.014,1.031-3.02,2.823-3.02,1.768,0,2.8,1.006,2.8,3.191v9.7h-1.424Zm-.049-4.076s-.393-1.62-1.424-1.62c-.761,0-1.277.442-1.277,2.5v1.669c0,1.989.492,2.5,1.277,2.5,1.031,0,1.424-1.6,1.424-1.6Z"/><path class="a" d="M767.966,169.126c0-1.793-.491-2.284-1.276-2.284-.762,0-1.646.884-1.646,2.922v9.452H763.5V166.449h1.547v1.523a2.131,2.131,0,0,1,2.038-1.645c1.523,0,2.431.884,2.431,3.191v9.7h-1.547Z"/><path class="a" d="M504.374,144.4h-3.105L541.64,0h3.105Z"/><path class="a" d="M512.311,99.465q145.12,2.946,290.279.137,144.129-2.808,288.069-11.323,81.381-4.815,162.639-11.453c.477-.039.482-.79,0-.75q-144.67,11.8-289.73,17.858-144.03,6-288.223,6.284-81.522.163-163.034-1.5a.375.375,0,0,0,0,.75Z"/><path class="a" d="M.361,86.93q127.769,7.5,255.659,12.662,127.388,5.128,254.854,7.907,72.195,1.574,144.4,2.394a.375.375,0,0,0,0-.75q-127.98-1.462-255.918-5.275-127.434-3.807-254.782-9.962Q72.449,90.42.361,86.18c-.482-.028-.481.722,0,.75Z"/><path class="a" d="M112.713,130.012l103.836.458,5.991.027c.924,0,6.01.033,3.146-.592-3.587-.782-8.693.421-12.378.6-8.317.414-16.633.835-24.952,1.2-16.678.722-33.376,1.209-50.071.907-2.416-.044-22.992.232-23.194-1.422-.133-1.082,8.281-5.008,9.205-5.448a63.741,63.741,0,0,1,10.9-4.039c14.024-3.77,28.8-2.659,42.945-.247,13.53,2.306,26.8,5.882,40.3,8.34,14.5,2.64,29.221,3.249,43.936,2.989,16.43-.291,32.816-1.622,49.224-2.437,17.071-.848,34.162-1.363,51.239-2.093q51.7-2.212,103.366-5.03,103.268-5.631,206.385-13.682T878.6,91.024q12.861-1.308,25.719-2.654a.375.375,0,0,0,0-.75L882.2,87.164l-10.578-.218c-3.717-.077-7.863-.738-11.539-.238-1.044.142-3.269.064-.879.525,1.79.345,4.1-.192,5.936-.271q5.44-.237,10.884-.427,11.382-.4,22.769-.594,45.054-.779,90.082,1.586c.483.025.482-.725,0-.75a1310.124,1310.124,0,0,0-132.638-.148.375.375,0,0,0,0,.75l42.309.872c1.315.027,3.294.457,3.792-.424a28.546,28.546,0,0,1-3.957.412q-5.439.565-10.88,1.125-11.378,1.168-22.756,2.308-42.548,4.26-85.136,8.108-86.164,7.783-172.472,13.877T434.428,124.15q-42.749,2.176-85.518,3.938c-27.572,1.136-55.158,3.121-82.738,3.86-15.381.412-30.837.049-46.024-2.607-12.45-2.178-24.689-5.4-37.1-7.757-24.166-4.595-49-5.179-69.718,9.971a.379.379,0,0,0,.189.7c38.324,2.757,76.713.042,115.015-1.731a.375.375,0,0,0,0-.75l-115.817-.511a.375.375,0,0,0,0,.75Z"/><path class="a" d="M223.784,124.13q4.224,3.9.871,5.7a6,6,0,0,1-5.982,1.333,8.085,8.085,0,0,1-5.023-8.082.377.377,0,0,0-.375-.375c-11.453.92-21.975,5.27-32.415,9.784-.442.191-.06.837.379.647,4.891-2.115,9.792-4.234,14.838-5.96,2.243-.767,4.513-1.465,6.812-2.041,1.881-.472,6.936-2.275,8.614-1.538,1.807.8,1.976,4.38,3.447,6a7.549,7.549,0,0,0,6.353,2.536c3.117-.355,8.807-4.877,6.907-8.68a2.831,2.831,0,0,0-5.15.477c-.145.461.579.658.724.2Z"/></svg>