<svg xmlns="http://www.w3.org/2000/svg" viewBox="0 0 182 182"><defs><style>.a{fill:#fff;}</style></defs><title>アセット 9</title><circle cx="91" cy="91" r="91"/><path class="a" d="M35.753,99.194V111H33.765V99.194H29.937V97.01h9.644v2.184Z"/><path class="a" d="M49.927,103.832a9.657,9.657,0,0,0-2.857-1.859l.84-1.916a8.323,8.323,0,0,1,2.93,1.974Zm4.447,3.412a22.361,22.361,0,0,1-5.051,4.139.316.316,0,0,0-.117.211c-.06.268-.089.345-.147.345-.148,0-.31-.364-.369-.517l-.78-1.84c3.71-1.993,6.317-4.5,8.79-9.18l1.164,1.84A22.922,22.922,0,0,1,54.374,107.244Zm-2.856-7.781A8.688,8.688,0,0,0,48.661,97.6l.839-1.917a8.531,8.531,0,0,1,2.856,1.859Z"/><path class="a" d="M71.17,107.052l-1.34-.747c.25-.556.3-.671.707-1.553.279-.594.309-.651.589-1.284l-2.68.709,1.105,7.321-1.576.479-1.016-7.4-2.694.728-.531-1.725,2.975-.747-.486-3.431,1.4-.211c.074-.019.383-.038.383.173,0,.038,0,.076-.117.268a.567.567,0,0,0-.089.288l.4,2.529,3.447-.862c.25-.058.426-.364.5-.5l1.193,1.13C72.687,103.621,72.187,104.733,71.17,107.052Z"/><path class="a" d="M80.544,102.472a19.454,19.454,0,0,0-1.325-3.7l1.575-.8a21.789,21.789,0,0,1,1.355,3.756Zm9.748-4.178a1.458,1.458,0,0,0-.266.172,7.2,7.2,0,0,0-.279,1.073c-1.429,7.245-5.095,10.081-6.817,11.423l-1.444-1.629a13.044,13.044,0,0,0,4.874-5.29,17.321,17.321,0,0,0,1.9-6.918l1.766.67c.045.019.325.134.325.307A.271.271,0,0,1,90.292,98.294Zm-6.361,3.047a18.982,18.982,0,0,0-1.178-3.757l1.546-.728a28.181,28.181,0,0,1,1.192,3.757Z"/><path class="a" d="M101.831,110.1a1.949,1.949,0,0,1-1.679.748,8.038,8.038,0,0,1-1.1-.077l-.354-2.07a3.385,3.385,0,0,0,1,.154,1.039,1.039,0,0,0,1.016-.537c.663-1.073.78-3.488.78-4.408,0-1.476-.279-1.936-1.192-1.936a3.8,3.8,0,0,0-.8.1,30.41,30.41,0,0,1-2.8,8.874l-1.531-.9a23.569,23.569,0,0,0,2.665-7.475,11.622,11.622,0,0,0-2,1.035l-.545-2.3c1.119-.229,1.62-.364,2.827-.709a29.857,29.857,0,0,0,.148-3.641l1.767.326c.192.038.353.134.353.287,0,.077-.015.1-.161.211-.177.153-.177.153-.207.4-.074.766-.1,1.111-.221,1.974a4.749,4.749,0,0,1,1.075-.135c1.988,0,2.164,2.281,2.164,3.987C103.038,106.765,102.523,109.237,101.831,110.1Zm2.739-4.331-.781-1.821c.53-.1.84-.191.84-.651,0-.479-.56-2.051-2.12-4.408l1.192-1.074c.678,1.055,2.68,4.14,2.68,6.172C106.381,105.442,105.114,105.672,104.57,105.768Zm1.281-6.133a8.216,8.216,0,0,0-1.163-1.686l.794-.767a11.087,11.087,0,0,1,1.134,1.629Zm1.5-1.131a7.54,7.54,0,0,0-1.045-1.648l.765-.728a8.248,8.248,0,0,1,1.149,1.61Z"/><path class="a" d="M118.081,101.149a8.073,8.073,0,0,0-1.8,4.6,3.3,3.3,0,0,0,1.06,2.491,3.874,3.874,0,0,0,2.592.978l-.575,2.338a5.983,5.983,0,0,1-3.622-2.128,5.624,5.624,0,0,1-1.09-3.449,8.459,8.459,0,0,1,1-3.814,13.829,13.829,0,0,1,1.945-2.913c-1.974.211-4.138.441-5.611.709l-.25-2.147a31.764,31.764,0,0,0,10.529-1.533V98.5C121.571,98.562,119.951,98.7,118.081,101.149Zm3.078,3.277a7.714,7.714,0,0,0-1.208-1.475l.6-.92a7.477,7.477,0,0,1,1.222,1.475Zm1.193-1.744a7.949,7.949,0,0,0-1.222-1.456l.618-.92a7.916,7.916,0,0,1,1.222,1.456Z"/><path class="a" d="M131.313,96.684a.668.668,0,0,0-.353.46c-.251.766-.4,1.207-.869,2.357l.206.134a.3.3,0,0,1,.074.192.467.467,0,0,1-.162.306.518.518,0,0,0-.221.345v11.365H128.31V103.1c-.163.268-.31.479-.487.728l-1.472-1.188a17.15,17.15,0,0,0,3-6.976l1.93.594a.221.221,0,0,1,.147.192A.332.332,0,0,1,131.313,96.684Zm4.182,3.564v1.936h3.358v1.955H135.5v1.916h3.828v2.128H135.5v3.641h-1.708V100.248h-.5a17.248,17.248,0,0,1-1.6,3.048l-1.562-1.074a15.324,15.324,0,0,0,2.827-6.669l1.768.69a.235.235,0,0,1,.132.192.232.232,0,0,1-.088.191c-.044.039-.25.154-.28.192s-.368,1.188-.427,1.38h5.507v2.05Z"/><path class="a" d="M149.346,111.364a2.55,2.55,0,0,1-2.783-2.625,2.4,2.4,0,0,1,2.165-2.549c1.531,0,2.488,1.571,2.9,2.242a3.765,3.765,0,0,0,.972-2.549,2.342,2.342,0,0,0-2.386-2.511,3.252,3.252,0,0,0-1.679.479,18.887,18.887,0,0,0-3.033,3.431l-1.237-1.687a34.31,34.31,0,0,0,5.448-6.918,10.732,10.732,0,0,1-3.445.479l-.339-2.146c.353.038,1.193.115,1.649.115a13.194,13.194,0,0,0,4.462-.959l.766,1.553a42.887,42.887,0,0,0-3.27,4.1,9.032,9.032,0,0,1,1.429-.115c2,0,3.268,2.127,3.268,4.235A5.129,5.129,0,0,1,149.346,111.364Zm-.56-3.488a.75.75,0,0,0-.735.8c0,.671.677.862,1.207.862a3.306,3.306,0,0,0,1-.172C150.067,108.93,149.626,107.876,148.786,107.876Z"/><path class="a" d="M57.887,142.291a13.682,13.682,0,0,1-4.226-4.083v4.447H51.908v-4.523a14.526,14.526,0,0,1-4.314,4.235l-1.281-1.533a10.45,10.45,0,0,0,4.432-3.929h-2.68v-6.324h3.843v-1.016H46.534v-1.821h5.374v-1.59l1.782.153c.177.019.221.115.221.192a.358.358,0,0,1-.088.172c-.133.134-.162.173-.162.268v.805h5.374v1.821H53.661v1.016h3.887v6.324H54.691a13.747,13.747,0,0,0,4.359,3.737Zm-5.979-10.273H49.744v.882h2.164Zm0,2.415H49.744v.92h2.164Zm3.946-2.415H53.661v.882h2.193Zm0,2.415H53.661v.92h2.193Z"/><path class="a" d="M62.651,129.642v-1.8h5.463v-1.686l2.018.306c.089.019.191.058.191.192a.2.2,0,0,1-.1.153c-.177.154-.266.23-.266.288v.747H75.3v1.8Zm4.58,8.566c-.191.058-.22.077-.251.135a21.078,21.078,0,0,1-2.532,3.641l-1.56-1.169a14.93,14.93,0,0,0,2.841-4.293l1.576,1.284a.315.315,0,0,1,.074.211A.2.2,0,0,1,67.231,138.208Zm2.577-2.012v4.523c0,.633-.118,1.418-.648,1.648a4.965,4.965,0,0,1-1.87.307l-.722-2.2a5.7,5.7,0,0,0,.943.115c.4,0,.53-.211.53-.556V136.2H64.36v-5.443h9.233V136.2Zm1.988-3.68H66.142v1.936H71.8Zm1.5,9.526a15.981,15.981,0,0,0-2.724-3.948l1.149-1.553a22.271,22.271,0,0,1,2.959,4.006Z"/><path class="a" d="M89.461,141.217a28.124,28.124,0,0,0-3.593-4.791,15.419,15.419,0,0,1-5.036,4.926l-1.3-1.744a13.349,13.349,0,0,0,4.7-4.14,16.684,16.684,0,0,0,2.5-5.232H81.127v-2.223h6.346a1.248,1.248,0,0,0,.765-.422l1.134,1.629a2.534,2.534,0,0,0-.8,1.15,26.323,26.323,0,0,1-1.708,4.293,34.36,34.36,0,0,1,3.9,4.734Z"/><path class="a" d="M105.829,131.539a22.086,22.086,0,0,1-1.693,4.6c.368.4.721.8,1.236,1.456l-1.089,1.648c-.251-.306-.53-.69-1.149-1.4a15.784,15.784,0,0,1-4.667,4.677l-1.325-1.8a11.53,11.53,0,0,0,4.741-4.216,19.076,19.076,0,0,0-2.43-2.013l.9-1.437a12.85,12.85,0,0,1,2.5,1.821,12.439,12.439,0,0,0,1.326-3.546h-3.77a17.038,17.038,0,0,1-2.665,3.891L96.376,133.9c2.076-1.839,3.489-5.117,4.122-7.512l1.62.613c.089.038.3.153.3.287,0,.115-.133.192-.339.307-.177.46-.457,1.207-.751,1.859h3.387c.177,0,.441-.268.662-.46l1.09,1.476A2.55,2.55,0,0,0,105.829,131.539Z"/><path class="a" d="M121.814,128.473c-.221.019-.251.057-.457.345a22.083,22.083,0,0,1-2.429,2.989v10.215h-1.84V133.59a25.717,25.717,0,0,1-3.711,2.721L112.1,134.6a24.308,24.308,0,0,0,8.54-8.145l1.281,1.38a.945.945,0,0,1,.251.46C122.168,128.434,122.108,128.453,121.814,128.473Z"/><path class="a" d="M132.19,128.779a.287.287,0,0,0-.1.249c0,3.584,0,3.872-.073,4.715a10.429,10.429,0,0,1-3.181,6.957l-1.635-1.552c1.414-1.074,3.152-2.7,3.152-7.475,0-1.782-.1-3.047-.162-3.622l1.782.153c.264.02.426.077.426.288C132.4,128.568,132.367,128.588,132.19,128.779Zm2.724,11.94-1.251-1.265V127.821l1.708.268c.132.02.412.058.412.25,0,.076-.029.134-.162.287,0,.019-.177.211-.177.23v8.375a15.466,15.466,0,0,0,3.888-4.906l1,1.935A22.669,22.669,0,0,1,134.914,140.719Z"/><path class="a" d="M78.212,38.33h-.883l-1.372-7.284h.868l.981,4.959.21,1.373,1.289-6.332h.364Z"/><path class="a" d="M78.314,38.455H77.226l-.02-.1-1.4-7.432h1.121l.02.1.981,4.959.1.685L79.2,30.921h.619l-.029.149Zm-.881-.25h.676l1.408-7.034h-.11L78,38.09l-.316-2.066-.959-4.853h-.616Z"/><path class="a" d="M82.065,33.091c0-1.387.728-2.114,1.751-2.114s1.751.727,1.751,2.114v3.194c0,1.387-.728,2.115-1.751,2.115s-1.751-.728-1.751-2.115Zm.869,3.782c0,.953.364,1.317.882,1.317s.869-.364.869-1.317V32.5c0-.952-.365-1.316-.869-1.316s-.882.364-.882,1.316Z"/><path class="a" d="M83.816,38.525c-1.157,0-1.876-.858-1.876-2.24V33.091c0-1.381.719-2.239,1.876-2.239s1.876.858,1.876,2.239v3.194C85.692,37.667,84.974,38.525,83.816,38.525Zm.393-7.383c.306.139.6.5.6,1.361v4.37c0,.865-.3,1.223-.6,1.362.78-.172,1.233-.873,1.233-1.95V33.091C85.442,32.015,84.989,31.314,84.209,31.142Zm-.8,0c-.772.175-1.222.875-1.222,1.946v3.194c0,1.071.45,1.772,1.222,1.947-.308-.141-.6-.5-.6-1.359V32.5C82.809,31.644,83.1,31.286,83.412,31.145Zm.4.167c-.5,0-.757.4-.757,1.191v4.37c0,.791.254,1.192.757,1.192s.744-.4.744-1.192V32.5C84.56,31.712,84.31,31.312,83.816,31.312Z"/><path class="a" d="M88.465,38.33V28.524h.853V38.33Z"/><path class="a" d="M89.443,38.455h-1.1V28.4h1.1Zm-.853-.25h.6V28.649h-.6Z"/><path class="a" d="M93.04,37.91a.49.49,0,1,1-.98,0v-.07a.49.49,0,1,1,.98,0Z"/><path class="a" d="M92.55,38.525a.6.6,0,0,1-.615-.615v-.07a.615.615,0,0,1,1.23,0v.07A.6.6,0,0,1,92.55,38.525Zm0-1.05a.352.352,0,0,0-.365.365v.07a.365.365,0,1,0,.73,0v-.07A.352.352,0,0,0,92.55,37.475Z"/><path class="a" d="M95.9,35.459a.4.4,0,0,1,.42.42v.84c0,1.065.351,1.471.91,1.471s.912-.406.912-1.471V33.567c0-1.036-.351-1.442-.912-1.442a1.849,1.849,0,0,0-1.148.532l-.182-.21,2.675-3H95.621v-.925h3.432v.841l-2.522,2.76a1.3,1.3,0,0,1,.771-.238c1.051,0,1.751.7,1.751,2.381v1.751c0,1.681-.7,2.381-1.822,2.381-1.049,0-1.751-.7-1.751-2.381v-.14A.4.4,0,0,1,95.9,35.459Z"/><path class="a" d="M97.231,38.525c-.7,0-1.876-.325-1.876-2.506v-.14a.546.546,0,0,1,1.091,0v.84c0,1.207.449,1.346.785,1.346s.787-.139.787-1.346V33.567c0-1.317-.592-1.317-.787-1.317a1.728,1.728,0,0,0-1.058.494l-.1.1-.342-.4.073-.082,2.489-2.79H95.5V28.4h3.682v1.015l-.032.036-2.14,2.34a1.583,1.583,0,0,1,.3-.028c.7,0,1.876.325,1.876,2.506v1.751C99.178,38.09,98.119,38.525,97.231,38.525Zm.192-6.51c.56.093.845.614.845,1.552v3.152c0,.828-.213,1.337-.634,1.52.859-.168,1.294-.913,1.294-2.22V34.268C98.928,32.828,98.422,32.071,97.423,32.015ZM95.9,35.584a.28.28,0,0,0-.3.295v.14c0,1.29.407,2.033,1.209,2.213-.41-.188-.618-.7-.618-1.513v-.84A.279.279,0,0,0,95.9,35.584Zm.166-3.135.027.029a2.243,2.243,0,0,1,.466-.309l-.121-.128,2.489-2.724v-.668H95.746v.675h3.109Z"/><path class="a" d="M50.307,57.33V47.777H48.7v-.253h4.132v.253h-1.61V57.33Z"/><path class="a" d="M51.343,57.455H50.182V47.9H48.571v-.5h4.382v.5h-1.61Zm-.911-.25h.661V47.652l1.61,0-3.882,0h1.611Z"/><path class="a" d="M62.208,55.089c0,1.541-.77,2.311-1.891,2.311-1.05,0-1.821-.77-1.821-2.311V53.828h.841v1.821c0,1.051.42,1.541.98,1.541s.981-.49.981-1.541v-.784c0-1.177-.49-1.611-1.3-2.382l-.266-.252A2.833,2.833,0,0,1,58.5,50.046v-.63a1.794,1.794,0,1,1,3.572,0v1.261h-.84V49.136c0-.981-.42-1.471-.911-1.471s-.91.49-.91,1.471v.63A2.4,2.4,0,0,0,60.443,51.6l.267.253a3.6,3.6,0,0,1,1.5,2.562Z"/><path class="a" d="M60.317,57.525c-1.2,0-1.946-.933-1.946-2.436V53.7h1.091v1.946c0,.9.311,1.416.855,1.416s.856-.516.856-1.416v-.784c0-1.094-.428-1.5-1.2-2.234l-.407-.386a2.83,2.83,0,0,1-1.191-2.2v-.63a1.918,1.918,0,1,1,3.822,0V50.8H61.1V49.136c0-.818-.309-1.346-.786-1.346s-.785.528-.785,1.346v.63c0,.8.418,1.193,1,1.744l.267.253a3.708,3.708,0,0,1,1.537,2.653v.673C62.333,56.615,61.579,57.525,60.317,57.525Zm-.326-9.918a1.687,1.687,0,0,0-1.37,1.809v.63a2.6,2.6,0,0,0,1.113,2.018l.407.385a2.934,2.934,0,0,1,1.282,2.416v.784c0,.833-.264,1.4-.723,1.592.885-.166,1.383-.929,1.383-2.152v-.673a3.469,3.469,0,0,0-1.459-2.472l-.267-.253a2.524,2.524,0,0,1-1.075-1.925v-.63C59.282,48.222,59.617,47.766,59.991,47.607Zm-1.37,6.346v1.136c0,1.185.475,1.956,1.291,2.143-.445-.2-.7-.763-.7-1.583v-1.7Zm2.732-3.4h.59V49.416a1.7,1.7,0,0,0-1.283-1.8c.367.165.693.622.693,1.522Z"/><path class="a" d="M69.059,47.524V57.33h-.911V52.638h-2.1V57.33h-.91V47.524h.91v4.833h2.1V47.524Z"/><path class="a" d="M69.184,57.455H68.023V52.763H66.172v4.692h-1.16V47.4h1.16v4.833h1.851V47.4h1.161Zm-.911-.25h.661V47.649h-.661v4.833H65.922V47.649h-.66v9.556h.66V52.513h2.351Z"/><path class="a" d="M73.15,57.33h-.91V47.524h.91Z"/><path class="a" d="M73.275,57.455h-1.16V47.4h1.16Zm-.91-.25h.66V47.649h-.66Z"/><path class="a" d="M78.617,52.945,80.4,57.33H79.359l-1.625-4.343h-.5V57.33h-.911V47.524H78.07c1.261,0,1.822.561,1.822,1.822v1.821C79.892,52.231,79.485,52.792,78.617,52.945Zm.364-3.88c0-1.008-.28-1.288-.77-1.288H77.23v4.931h.981c.49,0,.77-.28.77-1.261Z"/><path class="a" d="M80.581,57.455H79.272l-1.625-4.343h-.292v4.343H76.194V47.4H78.07a1.7,1.7,0,0,1,1.947,1.947v1.821c0,1.054-.4,1.667-1.228,1.87Zm-1.135-.25h.764l-1.767-4.356.153-.027c.809-.143,1.171-.653,1.171-1.655V49.346c0-1.093-.429-1.61-1.421-1.687.531.06.76.49.76,1.406v2.382c0,.972-.267,1.386-.895,1.386H77.105V47.652h1.119c-.05,0-.1,0-.154,0H76.444v9.556h.661V52.862h.716Zm-2.091-4.622h.856c.312,0,.645-.088.645-1.136V49.065c0-1.073-.319-1.163-.645-1.163h-.856Z"/><path class="a" d="M83.891,57.33V47.777H82.28v-.253h4.132v.253H84.8V57.33Z"/><path class="a" d="M84.927,57.455H83.766V47.9H82.155v-.5h4.382v.5h-1.61Zm-.911-.25h.661V47.652l1.61,0-3.882,0h1.611Z"/><path class="a" d="M92.353,55.089c0,1.541-.771,2.311-1.891,2.311-1.051,0-1.821-.77-1.821-2.311V53.828h.84v1.821c0,1.051.42,1.541.981,1.541s.98-.49.98-1.541v-.784c0-1.177-.49-1.611-1.3-2.382l-.267-.252a2.835,2.835,0,0,1-1.232-2.185v-.63a1.794,1.794,0,1,1,3.572,0v1.261h-.841V49.136c0-.981-.42-1.471-.91-1.471s-.911.49-.911,1.471v.63A2.4,2.4,0,0,0,90.588,51.6l.266.253a3.6,3.6,0,0,1,1.5,2.562Z"/><path class="a" d="M90.462,57.525c-1.2,0-1.946-.933-1.946-2.436V53.7h1.09v1.946c0,.9.312,1.416.856,1.416s.855-.529.855-1.416v-.784c0-1.094-.427-1.5-1.2-2.234l-.407-.386a2.829,2.829,0,0,1-1.19-2.2v-.63a1.918,1.918,0,1,1,3.822,0V50.8H91.247V49.136c0-.818-.309-1.346-.785-1.346s-.786.528-.786,1.346v.63a2.3,2.3,0,0,0,1,1.744l.265.253a3.7,3.7,0,0,1,1.539,2.653v.673C92.478,56.615,91.724,57.525,90.462,57.525Zm-.327-9.918a1.688,1.688,0,0,0-1.369,1.809v.63a2.6,2.6,0,0,0,1.113,2.018l.406.385a2.931,2.931,0,0,1,1.282,2.416v.784c0,.833-.263,1.4-.722,1.592.884-.166,1.383-.929,1.383-2.152v-.673a3.465,3.465,0,0,0-1.46-2.472l-.266-.253a2.522,2.522,0,0,1-1.076-1.925v-.63C89.426,48.222,89.762,47.766,90.135,47.607Zm-1.369,6.346v1.136c0,1.185.474,1.956,1.291,2.143-.446-.2-.7-.763-.7-1.583v-1.7Zm2.731-3.4h.591V49.416a1.7,1.7,0,0,0-1.283-1.8c.367.165.692.622.692,1.522Z"/><path class="a" d="M102.292,55.089c0,1.541-.771,2.311-1.891,2.311-1.05,0-1.821-.77-1.821-2.311V53.828h.841v1.821c0,1.051.42,1.541.98,1.541s.981-.49.981-1.541v-.784c0-1.177-.49-1.611-1.3-2.382l-.266-.252a2.833,2.833,0,0,1-1.233-2.185v-.63a1.794,1.794,0,1,1,3.572,0v1.261h-.84V49.136c0-.981-.42-1.471-.911-1.471s-.91.49-.91,1.471v.63a2.4,2.4,0,0,0,1.036,1.835l.267.253a3.6,3.6,0,0,1,1.5,2.562Z"/><path class="a" d="M100.4,57.525c-1.2,0-1.946-.933-1.946-2.436V53.7h1.091v1.946c0,.9.311,1.416.855,1.416s.856-.516.856-1.416v-.784c0-1.094-.428-1.5-1.2-2.234l-.405-.385a2.829,2.829,0,0,1-1.193-2.2v-.63a1.918,1.918,0,1,1,3.822,0V50.8h-1.09V49.136c0-.818-.309-1.346-.786-1.346s-.785.528-.785,1.346v.63c0,.8.418,1.193,1,1.744l.267.253a3.708,3.708,0,0,1,1.537,2.653v.673C102.417,56.615,101.663,57.525,100.4,57.525Zm-.326-9.918a1.687,1.687,0,0,0-1.37,1.809v.63a2.6,2.6,0,0,0,1.115,2.019l.405.384a2.934,2.934,0,0,1,1.282,2.416v.784c0,.833-.264,1.4-.723,1.592.885-.166,1.383-.929,1.383-2.152v-.673a3.469,3.469,0,0,0-1.459-2.472l-.267-.253a2.524,2.524,0,0,1-1.075-1.925v-.63C99.366,48.222,99.7,47.766,100.075,47.607Zm-1.37,6.346v1.136c0,1.185.475,1.956,1.291,2.143-.445-.2-.7-.763-.7-1.583v-1.7Zm2.732-3.4h.59V49.416a1.7,1.7,0,0,0-1.283-1.8c.367.165.693.622.693,1.522Z"/><path class="a" d="M106.026,57.33V47.777h-1.611v-.253h4.132v.253h-1.61V57.33Z"/><path class="a" d="M107.062,57.455H105.9V47.9H104.29v-.5h4.382v.5h-1.61Zm-.911-.25h.661V47.652l1.61,0-3.882,0h1.611Z"/><path class="a" d="M112.611,53.9l-1.834-6.374h.924l1.36,4.959.251,1,1.4-5.954h.35L113.522,53.9V57.33h-.911Z"/><path class="a" d="M113.647,57.455h-1.161V53.916L110.611,47.4H111.8l.024.092,1.487,5.46,1.306-5.552h.609l-.038.155-1.541,6.374Zm-.911-.25h.661V53.9l1.507-6.249h-.092L113.317,54l-.378-1.49-1.334-4.865h-.662l1.793,6.249Z"/><path class="a" d="M120.863,57.05v.28h-3.082V47.524h.91V57.05Z"/><path class="a" d="M120.988,57.455h-3.332V47.4h1.16v9.526h2.172Zm-3.082-.25h2.832v-.03h-2.172V47.649h-.66Z"/><path class="a" d="M126.663,57.078v.252h-3.151V47.524h2.941v.253h-2.031v4.441h1.541v.252h-1.541v4.608Z"/><path class="a" d="M126.788,57.455h-3.4V47.4h3.191v.5h-2.031v4.191h1.541v.5h-1.541v4.358h2.241Zm-3.151-.25,2.9,0H124.3V52.345l1.541,0H124.3V47.652l2.031,0h-2.691Z"/><path class="a" d="M77.529,76.33h-.911V66.524h.911Z"/><path class="a" d="M77.654,76.455H76.493V66.4h1.161Zm-.911-.25H77.4V66.649h-.661Z"/><path class="a" d="M84.191,74.089c0,1.541-.77,2.311-1.89,2.311-1.051,0-1.822-.77-1.822-2.311V72.828h.84v1.821c0,1.051.421,1.541.982,1.541s.98-.49.98-1.541v-.784c0-1.177-.49-1.611-1.3-2.382l-.267-.252a2.836,2.836,0,0,1-1.233-2.185v-.63a1.794,1.794,0,1,1,3.572,0v1.261h-.84V68.136c0-.981-.42-1.471-.91-1.471s-.911.49-.911,1.471v.63A2.4,2.4,0,0,0,82.427,70.6l.265.253a3.6,3.6,0,0,1,1.5,2.562Z"/><path class="a" d="M82.3,76.525c-1.2,0-1.947-.933-1.947-2.436V72.7h1.09v1.946c0,.887.321,1.416.857,1.416s.855-.529.855-1.416v-.784c0-1.094-.427-1.5-1.2-2.234l-.407-.386a2.83,2.83,0,0,1-1.191-2.2v-.63a1.918,1.918,0,1,1,3.822,0V69.8h-1.09V68.136c0-.818-.309-1.346-.785-1.346s-.786.528-.786,1.346v.63a2.3,2.3,0,0,0,1,1.744l.265.253a3.7,3.7,0,0,1,1.538,2.653v.673C84.316,75.615,83.562,76.525,82.3,76.525Zm-.327-9.918a1.688,1.688,0,0,0-1.37,1.809v.63a2.6,2.6,0,0,0,1.114,2.018l.406.385a2.934,2.934,0,0,1,1.282,2.416v.784c0,.833-.263,1.4-.722,1.592.884-.166,1.382-.929,1.382-2.152v-.673a3.462,3.462,0,0,0-1.46-2.472l-.265-.253a2.522,2.522,0,0,1-1.076-1.925v-.63C81.265,67.222,81.6,66.766,81.974,66.607ZM80.6,72.953v1.136c0,1.184.475,1.956,1.291,2.142-.446-.2-.7-.762-.7-1.582v-1.7Zm2.732-3.4h.59V68.416a1.7,1.7,0,0,0-1.282-1.8c.367.165.692.622.692,1.522Z"/><path class="a" d="M90.656,74.089c0,1.541-.77,2.311-1.89,2.311-1.051,0-1.822-.77-1.822-2.311V72.828h.841v1.821c0,1.051.42,1.541.981,1.541s.98-.49.98-1.541v-.784c0-1.177-.49-1.611-1.3-2.382l-.266-.252a2.836,2.836,0,0,1-1.233-2.185v-.63a1.794,1.794,0,1,1,3.573,0v1.261h-.841V68.136c0-.981-.42-1.471-.91-1.471s-.912.49-.912,1.471v.63A2.4,2.4,0,0,0,88.892,70.6l.265.253a3.6,3.6,0,0,1,1.5,2.562Z"/><path class="a" d="M88.766,76.525c-1.2,0-1.947-.933-1.947-2.436V72.7H87.91v1.946c0,.9.312,1.416.856,1.416s.855-.529.855-1.416v-.784c0-1.094-.428-1.5-1.2-2.234l-.407-.386a2.83,2.83,0,0,1-1.191-2.2v-.63a1.919,1.919,0,1,1,3.823,0V69.8H89.551V68.136c0-.818-.309-1.346-.785-1.346s-.787.528-.787,1.346v.63a2.3,2.3,0,0,0,1,1.744l.265.253a3.7,3.7,0,0,1,1.538,2.653v.673C90.781,75.615,90.027,76.525,88.766,76.525Zm-.328-9.918a1.688,1.688,0,0,0-1.369,1.809v.63a2.6,2.6,0,0,0,1.114,2.018l.406.385a2.934,2.934,0,0,1,1.282,2.416v.784c0,.833-.264,1.4-.723,1.592.885-.166,1.383-.929,1.383-2.152v-.673a3.465,3.465,0,0,0-1.46-2.472l-.265-.253a2.523,2.523,0,0,1-1.077-1.925v-.63C87.729,67.222,88.065,66.766,88.438,66.607Zm-1.369,6.346v1.136c0,1.185.475,1.956,1.291,2.143-.445-.2-.7-.763-.7-1.583v-1.7Zm2.732-3.4h.591V68.416a1.7,1.7,0,0,0-1.284-1.8c.368.165.693.622.693,1.522Z"/><path class="a" d="M94.46,74.635c0,.938.42,1.555,1.064,1.555s1.191-.49,1.191-1.457V66.524h.35v8c0,1.471-.77,1.891-1.625,1.891-.6,0-1.89-.14-1.89-2.451V66.524h.91Z"/><path class="a" d="M95.44,76.539c-1.337,0-2.015-.867-2.015-2.576V66.4h1.16v8.236c0,.869.369,1.43.939,1.43.531,0,1.066-.411,1.066-1.332V66.4h.6v8.124C97.19,76.189,96.238,76.539,95.44,76.539Zm-1.765-9.89v7.314c0,2.083,1.065,2.3,1.6,2.323-.573-.139-.942-.768-.942-1.651V66.649Zm3.165,0v8.084a1.519,1.519,0,0,1-.713,1.432c.54-.23.813-.78.813-1.642V66.649Z"/><path class="a" d="M103.361,76.078v.252h-3.152V66.524h2.942v.253H101.12v4.441h1.541v.252H101.12v4.608Z"/><path class="a" d="M103.486,76.455h-3.4V66.4h3.192v.5h-2.031v4.191h1.541v.5h-1.541v4.358h2.241Zm-3.152-.25,2.9,0H101V71.345l1.541,0H101V66.652l2.031,0h-2.692Z"/></svg>