<svg xmlns="http://www.w3.org/2000/svg" viewBox="0 0 173.037 111.552"><defs><style>.a{fill:#fff;}</style></defs><title>アセット 3</title><path class="a" d="M101.953,46.8a2.724,2.724,0,0,1,2.836,2.836v5.673c0,7.185,2.363,9.927,6.146,9.927s6.145-2.742,6.145-9.927V34.036c0-7-2.364-9.738-6.145-9.738-4.255,0-7.753,3.592-7.753,3.592l-1.229-1.418L120.011,6.24H100.062V0h23.164V5.673L106.207,24.3a8.789,8.789,0,0,1,5.2-1.608c7.091,0,11.819,4.728,11.819,16.073V50.581c0,11.345-4.728,16.072-12.291,16.072-7.091,0-11.819-4.727-11.819-16.072v-.946A2.725,2.725,0,0,1,101.953,46.8Z"/><path class="a" d="M77.128.507V18.1H75.62L72.076,6.212l-.728-3.066V18.1h-.629V.507h1.508l3.494,11.736.778,2.965V.507Z"/><path class="a" d="M79.375,8.7c0-2.487,1.307-3.794,3.142-3.794s3.14,1.307,3.14,3.794v5.73c0,2.488-1.306,3.8-3.14,3.8s-3.142-1.307-3.142-3.795Zm1.558,6.786c0,1.709.653,2.362,1.584,2.362.9,0,1.557-.653,1.557-2.362V7.644c0-1.709-.653-2.362-1.557-2.362-.931,0-1.584.653-1.584,2.362Z"/><path class="a" d="M88.908,17.345a.88.88,0,0,1-1.759,0v-.126a.88.88,0,1,1,1.759,0Z"/><path class="a" d="M.575,111.518A721.8,721.8,0,0,1,153.11,65.338c1.821-.336,3.763-.523,5.55-1,3.363-.9,1.643-.587.9-.218-3.246,1.6-6.7,2.864-10.064,4.209Q140.553,71.9,131.43,75A383.238,383.238,0,0,1,94.376,85.5Q74.3,90.123,53.823,92.712a29.843,29.843,0,0,0-4.554.558c-1.281.382-2.893.686-.7.575,3.118-.159,6.426-1.233,9.511-1.772q11.386-1.989,22.87-3.362a435.827,435.827,0,0,1,91.73-1.145c.481.044.478-.706,0-.75A437.637,437.637,0,0,0,45.522,93.694c-.408.082-.324.783.1.736,40.25-4.442,79.769-14.348,116.833-30.777.416-.184.1-.752-.289-.685A725.906,725.906,0,0,0,.2,110.871c-.443.189-.061.835.378.647Z"/></svg>