<svg xmlns="http://www.w3.org/2000/svg" viewBox="0 0 56.767 35.733"><defs><style>.a{fill:#9e9e9e;}</style></defs><title>アセット 22</title><path class="a" d="M1.57.124A.336.336,0,0,1,1.978.04,3.553,3.553,0,0,0,4.984.825,22.285,22.285,0,0,1,14.722.511a7.479,7.479,0,0,1,2.453.829,10.4,10.4,0,0,1,2.37,2c.9,1.007.4,2.312-.2,3.244a7.473,7.473,0,0,1-1.638,1.957,17.443,17.443,0,0,1-4.138,2.092c-.1.043-.217.238-.189.273.755,1,2.023,1.373,2.428,2.595a42.559,42.559,0,0,1,7.2,6.814c.761.869,1.763,1.561,1.991,2.823a3.128,3.128,0,0,1-.435,1.7.243.243,0,0,1-.3.108,3.115,3.115,0,0,1-1.451-1.309,15.139,15.139,0,0,0-1.777-2.631c-.178-.184-.444-.264-.612-.456-2.548-2.9-4.722-5.772-7.7-8.235a5.251,5.251,0,0,0-2.389-1.426c-1.915-.293-3.745-.566-5.658-.7a1.87,1.87,0,0,1-1.6-1.113c-.173-.667.835-1.025,1.49-1.114,2.64-.357,5.012.606,7.534,1.307,1.092.3,2.264-.457,3.372-.931a4.441,4.441,0,0,0,2.434-2.138,3.3,3.3,0,0,0-.461-2.941c-.925-1.645-3.019-1.954-4.747-1.916a21.745,21.745,0,0,0-3.956.295c-2.194.447-4.281.5-6.306,1.3a.693.693,0,0,0-.325.605c-.141,2.187-.371,4.337-.521,6.524-.053.777-.257,1.585-.28,2.362-.087,3.018,1.606,5.676,2.155,8.694.174.96.829,1.738.619,2.748a3.4,3.4,0,0,1-.489,1.4c-.343.475-.855.106-.942-.322C2.337,23.38,1.235,22.31.763,20.874a6.507,6.507,0,0,1-.012-2.667,2.082,2.082,0,0,0-.111-.538,4.918,4.918,0,0,1,.009-.948c-.137-1.61.135-3.2-.235-4.8a22.225,22.225,0,0,1,.1-8.9c.1-.593.915-.729.9-1.284C1.4,1.314,1.329.87,1.288.441,1.279.344,1.458.232,1.57.124Z"/><path class="a" d="M56.7,23.674a10.8,10.8,0,0,1-4.725,3.487c-.108.036-.388-.151-.365-.266.59-2.9,2.1-5.292,2.429-8.156.047-.4-.535-1.291-.874-.954-1.7,1.694-2.931,3.926-5.137,5.032a3.1,3.1,0,0,1-1.819-2.89,4.619,4.619,0,0,0,.723-6.082.206.206,0,0,0-.3.085,5.858,5.858,0,0,0-1.022,2.679,15.67,15.67,0,0,1-.175,3.847,2.1,2.1,0,0,1-.763.928,4.472,4.472,0,0,1-5.727.45c-1.3-1.037-.426-2.742-.868-4.012-.164-.47-.84-.645-.87-1.32a17.874,17.874,0,0,0,.1-2.246c-.163-.994-.838-2.171-1.771-1.99a5.589,5.589,0,0,0-3.961,3.925c-.674,1.945-.32,4.03-.97,5.955-.121.358-.717.515-.95.907a4.36,4.36,0,0,0-.25,1.691c.849-.1,1.23-1.091,2.036-1.127.922-.042,1.834.535,2.778.157a3.166,3.166,0,0,0,1.775-2.117c.136-.466.615-1.206.908-.963,1.207,1,1.792,2.833,3.349,3.288A4.654,4.654,0,0,0,44.9,22.461c1.131-1.226,2,1.1,2.6,1.962.692-.43,1.551-.558,2.119-1.2.5-.565.7-1.4,1.43-1.644.422-.139.667.418.655.7-.113,2.815-1.452,5.4-2.838,7.91-.078.141-.335.179-.376.342a6.483,6.483,0,0,1-.6,1.791,8.7,8.7,0,0,0-1.329,3.024.379.379,0,0,0,.3.383c1.323.079,1.82-1.322,2.492-2.261a5.432,5.432,0,0,0,.963-2.4c.013-.087.2-.126.277-.227.148-.2.188-.451.351-.616s.389-.255.5-.455a5.387,5.387,0,0,1,1.612-1.719c1.2-.9,2.831-1.024,3.546-2.291C56.907,25.2,56.7,24.387,56.7,23.674ZM36.428,20.208c-1.162,1.131-2.377,3.644-4.216,2.043A1.683,1.683,0,0,1,31.6,21c.079-2.21.246-4.733,2.181-6.333.879-.726,2.514-.826,2.625.556.02.247-.092.59-.094.852,0,.8-.377,1.549-.146,2.2C36.379,18.887,37.029,19.623,36.428,20.208Z"/><path class="a" d="M18.028,31.706a.913.913,0,0,0,.627-.957c0-.749-.461-1.171-1.277-1.171H15.849v4.494h1.5c.921,0,1.408-.439,1.408-1.273A1.046,1.046,0,0,0,18.028,31.706ZM16.7,30.342h.411c.494,0,.663.13.663.51s-.187.521-.638.521H16.7Zm.452,2.966H16.7V32.115h.424c.53,0,.752.173.752.587S17.66,33.308,17.156,33.308Z"/><polyline class="a" points="23.235 29.578 20.612 29.578 20.612 34.072 23.235 34.072 23.235 33.297 21.465 33.297 21.465 32.058 23.027 32.058 23.027 31.306 21.465 31.306 21.465 30.342 23.235 30.342 23.235 29.578"/><path class="a" d="M27.12,29.578h-.977l-1.186,4.494h.889l.23-.939h1.117l.221.939h.9Zm-.486,1.087.382,1.715h-.769Z"/><polyline class="a" points="33.808 29.578 33.808 34.072 33 34.072 32.996 31.58 32.324 34.072 31.632 34.072 30.949 31.583 30.952 34.072 30.133 34.072 30.133 29.578 31.185 29.578 31.979 32.594 32.765 29.578 33.808 29.578"/><path class="a" d="M38.7,30.9v-.042a1.274,1.274,0,0,0-1.4-1.389,1.34,1.34,0,0,0-1.47,1.357c0,.6.3.965,1.035,1.248l.537.207c.335.129.5.319.5.586a.577.577,0,0,1-.622.557c-.449,0-.659-.252-.669-.8h-.876v.126a1.365,1.365,0,0,0,1.525,1.444,1.392,1.392,0,0,0,1.518-1.407c0-.637-.3-1-1.074-1.295l-.515-.2c-.334-.126-.478-.292-.478-.551a.523.523,0,0,1,.575-.508.579.579,0,0,1,.6.625V30.9H38.7"/></svg>